<mxfile host="app.diagrams.net" agent="Mozilla/5.0 (X11; Linux x86_64) AppleWebKit/537.36 (KHTML, like Gecko) Chrome/130.0.0.0 Safari/537.36" version="25.0.1">
  <diagram name="Seite-1" id="7351q9MtAz3J7EskulSJ">
    <mxGraphModel dx="1018" dy="1761" grid="1" gridSize="10" guides="1" tooltips="1" connect="1" arrows="1" fold="1" page="1" pageScale="1" pageWidth="827" pageHeight="1169" math="0" shadow="0">
      <root>
        <mxCell id="0" />
        <mxCell id="1" parent="0" />
        <mxCell id="4CX_WXpqvXqgN1A4HGdK-1" value="" style="rounded=0;whiteSpace=wrap;html=1;" vertex="1" parent="1">
          <mxGeometry x="150" y="140" width="120" height="170" as="geometry" />
        </mxCell>
        <mxCell id="4CX_WXpqvXqgN1A4HGdK-4" value="" style="rounded=0;whiteSpace=wrap;html=1;" vertex="1" parent="1">
          <mxGeometry x="150" y="370" width="120" height="170" as="geometry" />
        </mxCell>
        <mxCell id="4CX_WXpqvXqgN1A4HGdK-5" value="" style="rounded=0;whiteSpace=wrap;html=1;" vertex="1" parent="1">
          <mxGeometry x="350" y="90" width="120" height="170" as="geometry" />
        </mxCell>
        <mxCell id="4CX_WXpqvXqgN1A4HGdK-33" style="edgeStyle=orthogonalEdgeStyle;rounded=0;orthogonalLoop=1;jettySize=auto;html=1;exitX=0.5;exitY=1;exitDx=0;exitDy=0;entryX=0.5;entryY=0;entryDx=0;entryDy=0;" edge="1" parent="1" source="4CX_WXpqvXqgN1A4HGdK-7" target="4CX_WXpqvXqgN1A4HGdK-18">
          <mxGeometry relative="1" as="geometry" />
        </mxCell>
        <mxCell id="4CX_WXpqvXqgN1A4HGdK-7" value="" style="rounded=0;whiteSpace=wrap;html=1;" vertex="1" parent="1">
          <mxGeometry x="550" y="200" width="120" height="170" as="geometry" />
        </mxCell>
        <mxCell id="4CX_WXpqvXqgN1A4HGdK-8" value="" style="rounded=0;whiteSpace=wrap;html=1;" vertex="1" parent="1">
          <mxGeometry x="730" y="200" width="120" height="170" as="geometry" />
        </mxCell>
        <mxCell id="4CX_WXpqvXqgN1A4HGdK-9" value="" style="rounded=0;whiteSpace=wrap;html=1;" vertex="1" parent="1">
          <mxGeometry x="350" y="310" width="120" height="170" as="geometry" />
        </mxCell>
        <mxCell id="4CX_WXpqvXqgN1A4HGdK-10" value="" style="rounded=0;whiteSpace=wrap;html=1;" vertex="1" parent="1">
          <mxGeometry x="150" y="-90" width="120" height="170" as="geometry" />
        </mxCell>
        <mxCell id="4CX_WXpqvXqgN1A4HGdK-11" value="CHK" style="rounded=0;whiteSpace=wrap;html=1;fillColor=#dae8fc;strokeColor=#6c8ebf;" vertex="1" parent="1">
          <mxGeometry x="150" y="-90" width="120" height="30" as="geometry" />
        </mxCell>
        <mxCell id="4CX_WXpqvXqgN1A4HGdK-12" value="CV5" style="rounded=0;whiteSpace=wrap;html=1;fillColor=#dae8fc;strokeColor=#6c8ebf;" vertex="1" parent="1">
          <mxGeometry x="150" y="140" width="120" height="30" as="geometry" />
        </mxCell>
        <mxCell id="4CX_WXpqvXqgN1A4HGdK-13" value="VF4" style="rounded=0;whiteSpace=wrap;html=1;fillColor=#dae8fc;strokeColor=#6c8ebf;" vertex="1" parent="1">
          <mxGeometry x="150" y="370" width="120" height="30" as="geometry" />
        </mxCell>
        <mxCell id="4CX_WXpqvXqgN1A4HGdK-14" value="VX4" style="rounded=0;whiteSpace=wrap;html=1;fillColor=#dae8fc;strokeColor=#6c8ebf;" vertex="1" parent="1">
          <mxGeometry x="350" y="90" width="120" height="30" as="geometry" />
        </mxCell>
        <mxCell id="4CX_WXpqvXqgN1A4HGdK-16" value="VR4" style="rounded=0;whiteSpace=wrap;html=1;fillColor=#dae8fc;strokeColor=#6c8ebf;" vertex="1" parent="1">
          <mxGeometry x="550" y="200" width="120" height="30" as="geometry" />
        </mxCell>
        <mxCell id="4CX_WXpqvXqgN1A4HGdK-17" value="VX4EX" style="rounded=0;whiteSpace=wrap;html=1;fillColor=#dae8fc;strokeColor=#6c8ebf;" vertex="1" parent="1">
          <mxGeometry x="350" y="310" width="120" height="30" as="geometry" />
        </mxCell>
        <mxCell id="4CX_WXpqvXqgN1A4HGdK-18" value="WPE" style="rounded=0;whiteSpace=wrap;html=1;fillColor=#dae8fc;strokeColor=#6c8ebf;" vertex="1" parent="1">
          <mxGeometry x="730" y="200" width="120" height="30" as="geometry" />
        </mxCell>
        <mxCell id="4CX_WXpqvXqgN1A4HGdK-19" value="MTXM&lt;div&gt;u2[16]&lt;/div&gt;" style="rounded=0;whiteSpace=wrap;html=1;fillColor=#fff2cc;strokeColor=#d6b656;" vertex="1" parent="1">
          <mxGeometry x="150" y="50" width="120" height="30" as="geometry" />
        </mxCell>
        <mxCell id="4CX_WXpqvXqgN1A4HGdK-23" value="" style="endArrow=classic;html=1;rounded=0;exitX=0.5;exitY=1;exitDx=0;exitDy=0;entryX=0.5;entryY=0;entryDx=0;entryDy=0;" edge="1" parent="1" source="4CX_WXpqvXqgN1A4HGdK-19" target="4CX_WXpqvXqgN1A4HGdK-12">
          <mxGeometry width="50" height="50" relative="1" as="geometry">
            <mxPoint x="470" y="270" as="sourcePoint" />
            <mxPoint x="520" y="220" as="targetPoint" />
          </mxGeometry>
        </mxCell>
        <mxCell id="4CX_WXpqvXqgN1A4HGdK-24" value="vx4_vf4_ref&lt;div&gt;u2[16]&lt;/div&gt;" style="rounded=0;whiteSpace=wrap;html=1;fillColor=#fff2cc;strokeColor=#d6b656;" vertex="1" parent="1">
          <mxGeometry x="150" y="280" width="120" height="30" as="geometry" />
        </mxCell>
        <mxCell id="4CX_WXpqvXqgN1A4HGdK-25" value="" style="endArrow=classic;html=1;rounded=0;exitX=0.5;exitY=1;exitDx=0;exitDy=0;entryX=0.5;entryY=0;entryDx=0;entryDy=0;" edge="1" parent="1" source="4CX_WXpqvXqgN1A4HGdK-24" target="4CX_WXpqvXqgN1A4HGdK-13">
          <mxGeometry width="50" height="50" relative="1" as="geometry">
            <mxPoint x="410" y="270" as="sourcePoint" />
            <mxPoint x="460" y="220" as="targetPoint" />
          </mxGeometry>
        </mxCell>
        <mxCell id="4CX_WXpqvXqgN1A4HGdK-26" value="" style="endArrow=classic;html=1;rounded=0;exitX=1;exitY=0.5;exitDx=0;exitDy=0;entryX=0.5;entryY=0;entryDx=0;entryDy=0;" edge="1" parent="1" source="4CX_WXpqvXqgN1A4HGdK-24" target="4CX_WXpqvXqgN1A4HGdK-14">
          <mxGeometry width="50" height="50" relative="1" as="geometry">
            <mxPoint x="410" y="270" as="sourcePoint" />
            <mxPoint x="460" y="220" as="targetPoint" />
            <Array as="points">
              <mxPoint x="300" y="295" />
              <mxPoint x="300" y="50" />
              <mxPoint x="410" y="50" />
            </Array>
          </mxGeometry>
        </mxCell>
        <mxCell id="4CX_WXpqvXqgN1A4HGdK-27" value="" style="endArrow=classic;html=1;rounded=0;exitX=0.75;exitY=1;exitDx=0;exitDy=0;entryX=0.5;entryY=0;entryDx=0;entryDy=0;" edge="1" parent="1" source="4CX_WXpqvXqgN1A4HGdK-24" target="4CX_WXpqvXqgN1A4HGdK-17">
          <mxGeometry width="50" height="50" relative="1" as="geometry">
            <mxPoint x="410" y="270" as="sourcePoint" />
            <mxPoint x="460" y="220" as="targetPoint" />
            <Array as="points">
              <mxPoint x="240" y="340" />
              <mxPoint x="320" y="340" />
              <mxPoint x="320" y="290" />
              <mxPoint x="410" y="290" />
            </Array>
          </mxGeometry>
        </mxCell>
        <mxCell id="4CX_WXpqvXqgN1A4HGdK-28" value="graphic_ref&lt;div&gt;u2[16]&lt;/div&gt;" style="rounded=0;whiteSpace=wrap;html=1;fillColor=#fff2cc;strokeColor=#d6b656;" vertex="1" parent="1">
          <mxGeometry x="350" y="230" width="120" height="30" as="geometry" />
        </mxCell>
        <mxCell id="4CX_WXpqvXqgN1A4HGdK-29" value="" style="endArrow=classic;html=1;rounded=0;exitX=1;exitY=0.5;exitDx=0;exitDy=0;entryX=0.75;entryY=0;entryDx=0;entryDy=0;" edge="1" parent="1" source="4CX_WXpqvXqgN1A4HGdK-28" target="4CX_WXpqvXqgN1A4HGdK-16">
          <mxGeometry width="50" height="50" relative="1" as="geometry">
            <mxPoint x="460" y="270" as="sourcePoint" />
            <mxPoint x="510" y="220" as="targetPoint" />
            <Array as="points">
              <mxPoint x="500" y="245" />
              <mxPoint x="500" y="160" />
              <mxPoint x="640" y="160" />
            </Array>
          </mxGeometry>
        </mxCell>
        <mxCell id="4CX_WXpqvXqgN1A4HGdK-30" value="graphic_ref&lt;div&gt;u4[16]&lt;/div&gt;" style="rounded=0;whiteSpace=wrap;html=1;fillColor=#fff2cc;strokeColor=#d6b656;" vertex="1" parent="1">
          <mxGeometry x="350" y="450" width="120" height="30" as="geometry" />
        </mxCell>
        <mxCell id="4CX_WXpqvXqgN1A4HGdK-31" value="" style="endArrow=classic;html=1;rounded=0;exitX=0.5;exitY=1;exitDx=0;exitDy=0;entryX=0.25;entryY=0;entryDx=0;entryDy=0;" edge="1" parent="1" source="4CX_WXpqvXqgN1A4HGdK-30" target="4CX_WXpqvXqgN1A4HGdK-16">
          <mxGeometry width="50" height="50" relative="1" as="geometry">
            <mxPoint x="460" y="270" as="sourcePoint" />
            <mxPoint x="510" y="220" as="targetPoint" />
            <Array as="points">
              <mxPoint x="410" y="510" />
              <mxPoint x="520" y="510" />
              <mxPoint x="520" y="180" />
              <mxPoint x="580" y="180" />
            </Array>
          </mxGeometry>
        </mxCell>
        <mxCell id="4CX_WXpqvXqgN1A4HGdK-34" value="color_index&lt;div&gt;u1[64]&lt;/div&gt;" style="rounded=0;whiteSpace=wrap;html=1;fillColor=#fff2cc;strokeColor=#d6b656;" vertex="1" parent="1">
          <mxGeometry x="550" y="340" width="120" height="30" as="geometry" />
        </mxCell>
        <mxCell id="4CX_WXpqvXqgN1A4HGdK-35" value="RGB data" style="rounded=0;whiteSpace=wrap;html=1;fillColor=#fff2cc;strokeColor=#d6b656;" vertex="1" parent="1">
          <mxGeometry x="730" y="340" width="120" height="30" as="geometry" />
        </mxCell>
        <mxCell id="4CX_WXpqvXqgN1A4HGdK-36" value="minitile flags" style="rounded=0;whiteSpace=wrap;html=1;fillColor=#fff2cc;strokeColor=#d6b656;" vertex="1" parent="1">
          <mxGeometry x="150" y="510" width="120" height="30" as="geometry" />
        </mxCell>
      </root>
    </mxGraphModel>
  </diagram>
</mxfile>
